<svg width="188" height="40" viewBox="0 0 188 40" fill="none" xmlns="http://www.w3.org/2000/svg">
<g clip-path="url(#clip0_1_285)">
<path d="M36.3371 26.7742C35.6777 33.2087 30.2024 37.8447 23.7679 37.545C23.4682 37.525 23.1684 37.505 22.8687 37.465C22.529 37.4251 22.2092 37.3651 21.8695 37.3052C20.4907 37.0254 19.2118 36.5058 18.0328 35.8264C17.773 35.6666 17.4933 35.4867 17.2535 35.3069C14.2361 33.1487 12.2378 29.6517 12.1778 25.6751C12.1179 21.8784 12.0979 18.0817 12.1778 14.2849C12.2578 10.2883 14.2161 6.81133 17.2535 4.67316C17.5133 4.49332 17.773 4.31347 18.0528 4.15361C19.2118 3.45421 20.4907 2.95464 21.8695 2.67488C22.1893 2.61493 22.509 2.55498 22.8287 2.51501L26.1658 4.3934C26.0459 4.37342 25.926 4.35344 25.7862 4.33345C24.827 4.19357 23.8278 4.17359 22.8287 4.31347C22.489 4.35344 22.1693 4.41339 21.8296 4.49332C21.5698 4.55327 21.31 4.6332 21.0502 4.71313C16.9937 6.032 14.0163 9.90867 13.9363 14.3449C13.8764 18.0817 13.8764 21.7985 13.9363 25.5353C13.9963 30.1313 16.9737 33.948 21.1102 35.2669C21.37 35.3468 21.6297 35.4268 21.8895 35.4867C22.6688 35.6666 23.4881 35.7665 24.3274 35.7665C24.827 35.7665 25.3266 35.7265 25.8062 35.6666C26.1259 35.6266 26.4456 35.5667 26.7653 35.4867C31.2215 34.3877 34.5387 30.4111 34.6386 25.5752C34.6586 24.2763 34.6985 22.9775 34.6186 21.6786C34.5986 21.2989 34.3388 20.7793 34.0191 20.5795C31.821 19.0808 29.5829 17.6221 27.3248 16.2233C27.0651 16.0634 26.5255 16.0634 26.2857 16.2233C24.0676 17.642 21.8895 19.1208 19.7314 20.5995C19.5116 20.7594 19.2318 21.0391 19.2318 21.2789C19.1918 23.7368 19.2118 26.1947 19.2118 28.7325H31.1616C31.0816 29.2321 30.9617 29.6118 30.7819 29.8915C30.622 30.1513 30.4222 30.3112 30.1624 30.4111C30.1025 30.5709 30.0225 30.7308 29.9426 30.8907C29.7428 30.9306 29.503 30.9506 29.2632 30.9506H27.8244C27.9044 30.8107 27.9843 30.6908 28.0642 30.551H17.4733C17.4333 30.1513 17.3934 29.7916 17.3934 29.4519C17.3934 26.5944 17.4134 23.7168 17.3734 20.8593C17.3734 20.2198 17.5532 19.8401 18.0928 19.4805C20.7705 17.7419 23.4282 15.9635 26.0659 14.145C26.5855 13.7853 26.9452 13.7853 27.4847 14.1251C30.2024 15.9235 32.94 17.702 35.6777 19.4605C36.2172 19.8002 36.477 20.1599 36.437 20.8193C36.3971 22.7776 36.5369 24.7959 36.3371 26.7742Z" fill="#228C22"/>
<path d="M36.3371 26.7742C35.6777 33.2087 30.2024 37.8447 23.7679 37.545C23.4682 37.525 23.1684 37.505 22.8687 37.465C22.529 37.4251 22.2092 37.3651 21.8695 37.3052C20.4907 37.0254 19.2118 36.5059 18.0328 35.8265C17.773 35.6666 17.4933 35.4867 17.2535 35.3069C14.2361 33.1487 12.2378 29.6517 12.1778 25.6752C12.1179 21.8784 12.0979 18.0817 12.1778 14.2849C12.2578 10.2884 14.2161 6.81134 17.2535 4.67318C17.5133 4.49333 17.773 4.31349 18.0528 4.15362C19.2118 3.45422 20.4907 2.95465 21.8695 2.67489C22.1893 2.61494 22.509 2.55499 22.8287 2.51503C23.2284 2.45508 23.648 2.4351 24.0676 2.41511C30.3822 2.21529 35.8176 7.11109 36.417 13.5056C36.437 13.6255 36.417 13.7654 36.417 14.0451C35.278 13.4656 34.5387 12.9061 34.1989 11.6672C33.1998 7.99033 30.2823 5.35259 26.7254 4.51331C26.5455 4.47335 26.3657 4.43338 26.1658 4.39342C26.0459 4.37343 25.926 4.35345 25.7862 4.33347C24.827 4.19359 23.8278 4.17361 22.8287 4.31349C22.489 4.35345 22.1693 4.4134 21.8296 4.49333C21.5698 4.55328 21.31 4.63321 21.0502 4.71314C16.9937 6.03201 14.0163 9.90869 13.9363 14.3449C13.8764 18.0817 13.8764 21.7985 13.9363 25.5353C13.9963 30.1313 16.9737 33.9481 21.1102 35.2669C21.37 35.3469 21.6297 35.4268 21.8895 35.4867C22.6688 35.6666 23.4881 35.7665 24.3274 35.7665C24.827 35.7665 25.3266 35.7265 25.8062 35.6666C26.1259 35.6266 26.4456 35.5667 26.7653 35.4867C31.2215 34.3877 34.5387 30.4111 34.6386 25.5752C34.6586 24.2764 34.6985 22.9775 34.6186 21.6786C34.5986 21.2989 34.3388 20.7794 34.0191 20.5795C31.821 19.0808 29.5829 17.6221 27.3248 16.2233C27.0651 16.0634 26.5255 16.0634 26.2857 16.2233C24.0676 17.642 21.8895 19.1208 19.7314 20.5995C19.5116 20.7594 19.2318 21.0391 19.2318 21.2789C19.1918 23.7368 19.2118 26.1947 19.2118 28.7325H31.1616C31.0816 29.2321 30.9617 29.6118 30.7819 29.8915C30.622 30.1513 30.4222 30.3112 30.1624 30.4111C29.9226 30.511 29.6229 30.551 29.2632 30.551H17.4733C17.4333 30.1513 17.3934 29.7916 17.3934 29.4519C17.3934 26.5944 17.4134 23.7168 17.3734 20.8593C17.3734 20.2198 17.5532 19.8402 18.0928 19.4805C20.7705 17.742 23.4282 15.9635 26.0659 14.1451C26.5855 13.7854 26.9452 13.7854 27.4847 14.1251C30.2024 15.9235 32.94 17.702 35.6777 19.4605C36.2172 19.8002 36.477 20.1599 36.437 20.8193C36.3971 22.7776 36.5369 24.7959 36.3371 26.7742Z" fill="#228C22"/>
<path d="M27.205 20.9392C27.7645 20.9392 28.2841 20.9392 28.8436 20.9392C28.8436 21.4987 28.8436 21.9983 28.8436 22.4979C27.165 22.9375 27.0252 22.7976 27.205 20.9392Z" fill="#228C22"/>
<path d="M27.165 24.8559C27.165 24.2764 27.165 23.7968 27.165 23.2372C27.7246 23.2372 28.2241 23.2372 28.8036 23.2372C28.8036 23.7568 28.8036 24.2564 28.8036 24.8559C28.324 24.8559 27.7845 24.8559 27.165 24.8559Z" fill="#228C22"/>
<path d="M24.9069 22.5778C24.9069 22.0183 24.9069 21.5187 24.9069 20.9392C25.4465 20.9392 25.946 20.9392 26.5255 20.9392C26.5255 21.4787 26.5255 21.9983 26.5255 22.5778C25.986 22.5778 25.4864 22.5778 24.9069 22.5778Z" fill="#228C22"/>
<path d="M26.5256 24.8758C25.9661 24.8758 25.4665 24.8758 24.887 24.8758C24.887 24.3163 24.887 23.7968 24.887 23.2173C25.4465 23.2173 25.9461 23.2173 26.5256 23.2173C26.5256 23.7968 26.5256 24.2963 26.5256 24.8758Z" fill="#228C22"/>
<path d="M26.5455 4.87299C25.8062 4.71313 25.0468 4.61321 24.2475 4.61321C23.8079 4.61321 23.3483 4.6332 22.8887 4.69315C22.7887 4.71313 22.7088 4.71313 22.6089 4.73311C26.3657 6.13191 29.1033 9.68886 29.2832 13.8853H31.0417C31.0017 10.2484 29.2432 6.99117 26.5455 4.87299ZM8.84071 25.6552V14.3449C8.84071 9.4091 12.3777 5.25267 17.0537 4.31347C18.1927 3.51416 19.4916 2.89469 20.8904 2.51501C20.4108 2.45507 19.9112 2.4151 19.4116 2.4151H18.7322C12.3177 2.4151 7.08221 7.65061 7.08221 14.0651V25.9349C7.08221 32.3494 12.3177 37.5849 18.7322 37.5849H19.4116C19.9112 37.5849 20.4108 37.545 20.8904 37.485C19.5315 37.1053 18.2526 36.4859 17.1136 35.6866C12.4176 34.7873 8.84071 30.6109 8.84071 25.6552Z" fill="#228C22"/>
<path d="M22.8487 4.3135C22.509 4.35346 22.1892 4.41341 21.8495 4.49334C20.9703 4.25355 20.0311 4.11367 19.0719 4.11367C18.7322 4.11367 18.3925 4.13365 18.0528 4.17362C19.2118 3.47422 20.4907 2.97465 21.8695 2.69489C23.2883 2.99463 24.6072 3.57413 25.7862 4.35346C24.847 4.1936 23.8478 4.1936 22.8487 4.3135Z" fill="#228C22"/>
<path d="M31.0617 13.9053H29.3032C29.1233 9.70888 26.3857 6.15194 22.6289 4.75314C22.7288 4.73315 22.8088 4.73315 22.9087 4.71317C23.3483 4.65322 23.8079 4.63324 24.2675 4.63324C25.0668 4.63324 25.8262 4.71317 26.5655 4.89302C29.2432 6.99122 31.0017 10.2484 31.0617 13.9053Z" fill="#228C22"/>
<path d="M17.1136 35.7065C18.2526 36.5059 19.5116 37.1053 20.8904 37.505C20.4108 37.5649 19.9112 37.6049 19.4116 37.6049H18.7322C12.3177 37.5849 7.08221 32.3494 7.08221 25.9349V14.0651C7.08221 7.65061 12.3177 2.4151 18.7322 2.4151H19.4116C19.9112 2.4151 20.4108 2.45507 20.8904 2.51501C19.4916 2.91467 18.1927 3.51416 17.0537 4.31347C12.3777 5.25267 8.84071 9.4091 8.84071 14.3449V25.6552C8.84071 30.6109 12.4176 34.7873 17.1136 35.7065Z" fill="#228C22"/>
<path d="M25.8062 35.6666C24.6272 36.4459 23.2884 37.0254 21.8696 37.3252C20.4908 37.0454 19.2119 36.5258 18.0329 35.8464C18.3726 35.8864 18.7123 35.9064 19.072 35.9064C20.0512 35.9064 20.9904 35.7665 21.8896 35.5067C22.6689 35.6866 23.4882 35.7865 24.3275 35.7865C24.8271 35.7665 25.3266 35.7265 25.8062 35.6666Z" fill="#228C22"/>
<path d="M30.722 28.6926C30.5821 29.2721 30.4022 29.8316 30.1624 30.3711C30.1025 30.531 30.0226 30.6909 29.9426 30.8507C29.1633 32.5293 27.9843 33.988 26.5455 35.1071C25.8262 35.2669 25.0868 35.3668 24.3075 35.3668H24.2675C23.708 35.3668 23.1684 35.3269 22.6289 35.227C24.807 34.4077 26.6255 32.869 27.8244 30.9107C27.9044 30.7708 27.9843 30.6509 28.0642 30.511C28.384 29.9315 28.6437 29.332 28.8436 28.6926H30.722Z" fill="#228C22"/>
</g>
<path d="M53.1475 26.0246C51.8189 26.0246 50.6387 25.7823 49.6071 25.2978C48.5754 24.7976 47.7704 24.1098 47.1921 23.2345C46.6138 22.3435 46.3246 21.3353 46.3246 20.2099V14.9578C46.3246 13.8324 46.6059 12.832 47.1687 11.9567C47.747 11.0814 48.5442 10.4014 49.5602 9.91684C50.5762 9.43228 51.7407 9.18999 53.0537 9.18999C54.3667 9.18999 55.5313 9.40101 56.5473 9.82305C57.5633 10.2295 58.3527 10.8 58.9154 11.5346C59.4937 12.2693 59.7829 13.1056 59.7829 14.0434C59.7829 14.5124 59.6266 14.8797 59.314 15.1454C59.0013 15.4111 58.5871 15.544 58.0713 15.544C57.9619 15.544 57.7978 15.5284 57.5789 15.4971C57.6102 15.3095 57.6258 15.0126 57.6258 14.6061C57.6258 13.934 57.4304 13.3322 57.0397 12.8008C56.6645 12.2693 56.1252 11.8551 55.4218 11.5581C54.7341 11.2611 53.9447 11.1126 53.0537 11.1126C52.1784 11.1126 51.3968 11.2767 50.7091 11.605C50.0213 11.9176 49.482 12.3709 49.0913 12.9649C48.7161 13.5432 48.5286 14.2076 48.5286 14.9578V20.2099C48.5286 20.9602 48.7239 21.6323 49.1147 22.2263C49.5055 22.8203 50.0526 23.2814 50.756 23.6096C51.4594 23.9379 52.2566 24.102 53.1475 24.102C54.0229 24.102 54.8044 23.9535 55.4922 23.6565C56.1956 23.3595 56.7348 22.9375 57.11 22.3904C57.5008 21.8433 57.6962 21.2259 57.6962 20.5381V19.2251H54.7419C54.2573 19.2251 53.8666 19.061 53.5696 18.7327C53.2726 18.3889 53.1241 17.9434 53.1241 17.3963H58.845C59.1577 17.3963 59.4078 17.4901 59.5953 17.6776C59.7985 17.8652 59.9001 18.1153 59.9001 18.4279V20.5616C59.9001 21.6245 59.611 22.5702 59.0326 23.3986C58.4699 24.227 57.6727 24.8757 56.6411 25.3447C55.625 25.798 54.4605 26.0246 53.1475 26.0246ZM67.9267 15.6847C67.0514 15.6847 66.3245 15.9504 65.7462 16.4819C65.1678 16.9977 64.8787 17.6308 64.8787 18.381V24.524C64.8787 25.0399 64.7067 25.4228 64.3629 25.6729C64.0346 25.9074 63.5266 26.0246 62.8388 26.0246V15.6143C62.8388 14.4577 63.4953 13.8793 64.8083 13.8793V15.3095C64.5582 15.5753 64.3863 15.8097 64.2925 16.0129L64.3863 16.1067C65.3867 14.6218 66.6372 13.8793 68.1377 13.8793C68.7005 13.8793 69.1303 14.02 69.4273 14.3013C69.7243 14.5671 69.8728 14.8953 69.8728 15.2861C69.8728 15.5675 69.8025 15.8176 69.6618 16.0364C69.2241 15.8019 68.6458 15.6847 67.9267 15.6847ZM76.0006 26.0246C75.0471 26.0246 74.1952 25.8449 73.4449 25.4853C72.6946 25.1102 72.1085 24.6022 71.6864 23.9613C71.2644 23.3048 71.0534 22.5702 71.0534 21.7573V18.2873C71.0534 17.4588 71.2722 16.7085 71.7099 16.0364C72.1632 15.3643 72.765 14.8406 73.5152 14.4655C74.2812 14.0747 75.1096 13.8793 76.0006 13.8793C76.8916 13.8793 77.7044 14.0669 78.439 14.442C79.1893 14.8172 79.7755 15.333 80.1975 15.9895C80.6352 16.646 80.854 17.3885 80.854 18.2169V19.7175C80.854 19.9676 80.7602 20.1786 80.5727 20.3506C80.3851 20.5225 80.1584 20.6085 79.8927 20.6085H73.0463V21.6636C73.0463 22.4607 73.2964 23.1016 73.7966 23.5862C74.3124 24.0707 75.0471 24.313 76.0006 24.313C76.9541 24.313 77.6809 24.102 78.1811 23.68C78.6813 23.2579 78.9314 22.6874 78.9314 21.9684C79.4003 21.9371 79.7911 22.0309 80.1037 22.2497C80.432 22.4529 80.5961 22.7577 80.5961 23.1641C80.5961 23.6643 80.3773 24.1333 79.9396 24.5709C79.5176 25.0086 78.9548 25.3603 78.2515 25.626C77.5481 25.8918 76.7978 26.0246 76.0006 26.0246ZM78.9548 19.0141V18.2169C78.9548 17.4354 78.6813 16.8023 78.1342 16.3177C77.6028 15.8176 76.8916 15.5675 76.0006 15.5675C75.1096 15.5675 74.3906 15.8176 73.8435 16.3177C73.312 16.8023 73.0463 17.4354 73.0463 18.2169V19.0141H78.9548ZM88.2734 26.0246C87.3199 26.0246 86.468 25.8449 85.7177 25.4853C84.9674 25.1102 84.3813 24.6022 83.9592 23.9613C83.5372 23.3048 83.3262 22.5702 83.3262 21.7573V18.2873C83.3262 17.4588 83.545 16.7085 83.9827 16.0364C84.436 15.3643 85.0378 14.8406 85.788 14.4655C86.554 14.0747 87.3824 13.8793 88.2734 13.8793C89.1644 13.8793 89.9772 14.0669 90.7118 14.442C91.4621 14.8172 92.0483 15.333 92.4703 15.9895C92.908 16.646 93.1268 17.3885 93.1268 18.2169V19.7175C93.1268 19.9676 93.033 20.1786 92.8455 20.3506C92.6579 20.5225 92.4312 20.6085 92.1655 20.6085H85.3191V21.6636C85.3191 22.4607 85.5692 23.1016 86.0694 23.5862C86.5852 24.0707 87.3199 24.313 88.2734 24.313C89.2269 24.313 89.9537 24.102 90.4539 23.68C90.9541 23.2579 91.2042 22.6874 91.2042 21.9684C91.6731 21.9371 92.0639 22.0309 92.3765 22.2497C92.7048 22.4529 92.8689 22.7577 92.8689 23.1641C92.8689 23.6643 92.6501 24.1333 92.2124 24.5709C91.7904 25.0086 91.2276 25.3603 90.5243 25.626C89.8209 25.8918 89.0706 26.0246 88.2734 26.0246ZM91.2276 19.0141V18.2169C91.2276 17.4354 90.9541 16.8023 90.407 16.3177C89.8756 15.8176 89.1644 15.5675 88.2734 15.5675C87.3824 15.5675 86.6634 15.8176 86.1163 16.3177C85.5848 16.8023 85.3191 17.4354 85.3191 18.2169V19.0141H91.2276ZM95.8334 15.6143C95.8334 14.4577 96.4899 13.8793 97.8029 13.8793V15.3799C97.6623 15.5206 97.4981 15.7316 97.3106 16.0129L97.4044 16.1067C97.8733 15.4502 98.4829 14.9188 99.2332 14.5124C99.9835 14.0903 100.796 13.8793 101.672 13.8793C102.938 13.8793 103.938 14.2544 104.673 15.0047C105.407 15.755 105.775 16.7242 105.775 17.9121V24.524C105.775 25.0399 105.603 25.4228 105.259 25.6729C104.931 25.9074 104.423 26.0246 103.735 26.0246V18.1231C103.735 17.3728 103.524 16.7789 103.102 16.3412C102.68 15.9035 102.039 15.6847 101.179 15.6847C100.601 15.6847 100.054 15.8097 99.538 16.0598C99.0378 16.2943 98.6314 16.6226 98.3188 17.0446C98.0218 17.451 97.8733 17.8965 97.8733 18.381V24.524C97.8733 25.0399 97.7013 25.4228 97.3575 25.6729C97.0292 25.9074 96.5212 26.0246 95.8334 26.0246V15.6143ZM121.402 26.0246C120.089 26.0246 118.917 25.7823 117.885 25.2978C116.854 24.7976 116.049 24.1098 115.47 23.2345C114.908 22.3435 114.626 21.3353 114.626 20.2099V14.9578C114.626 13.8324 114.908 12.832 115.47 11.9567C116.049 11.0814 116.846 10.4014 117.862 9.91684C118.878 9.43228 120.043 9.18999 121.356 9.18999C122.669 9.18999 123.833 9.40101 124.849 9.82305C125.865 10.2295 126.654 10.8 127.217 11.5346C127.796 12.2693 128.085 13.1134 128.085 14.0669C128.085 14.5358 127.928 14.9031 127.616 15.1689C127.303 15.4346 126.889 15.5675 126.373 15.5675C126.264 15.5675 126.1 15.5518 125.881 15.5206C125.912 15.333 125.928 15.036 125.928 14.6296C125.928 13.9575 125.732 13.3557 125.341 12.8242C124.966 12.2928 124.427 11.8785 123.724 11.5815C123.036 11.2846 122.247 11.1361 121.356 11.1361C120.48 11.1361 119.699 11.3002 119.011 11.6284C118.323 11.9411 117.784 12.3944 117.393 12.9883C117.018 13.5667 116.83 14.2232 116.83 14.9578V20.2099C116.83 20.9602 117.018 21.6323 117.393 22.2263C117.784 22.8046 118.323 23.2579 119.011 23.5862C119.714 23.9144 120.511 24.0786 121.402 24.0786C122.309 24.0786 123.114 23.9301 123.817 23.6331C124.521 23.3361 125.068 22.9297 125.459 22.4138C125.849 21.8824 126.045 21.2728 126.045 20.585C126.045 20.3349 126.029 20.0379 125.998 19.694C126.217 19.6628 126.373 19.6472 126.467 19.6472C126.983 19.6472 127.397 19.7957 127.71 20.0926C128.038 20.3896 128.202 20.7882 128.202 21.2884C128.202 22.2106 127.913 23.0313 127.334 23.7503C126.756 24.4693 125.951 25.032 124.919 25.4385C123.903 25.8292 122.731 26.0246 121.402 26.0246ZM134.186 26.0246C132.841 26.0246 131.755 25.6651 130.927 24.9461C130.114 24.227 129.707 23.2814 129.707 22.109C129.707 20.9211 130.137 19.9676 130.997 19.2486C131.857 18.5139 132.99 18.1466 134.397 18.1466C135.897 18.1466 137.132 18.678 138.101 19.7409L138.195 19.6472C138.023 19.4596 137.828 19.2642 137.609 19.061V18.0762C137.609 17.2791 137.359 16.6616 136.858 16.224C136.358 15.7863 135.647 15.5675 134.725 15.5675C133.084 15.5675 131.911 16.2161 131.208 17.5135C130.958 17.3885 130.747 17.2243 130.575 17.0211C130.418 16.8023 130.34 16.5835 130.34 16.3646C130.34 15.9426 130.551 15.544 130.973 15.1689C131.395 14.7781 131.95 14.4655 132.638 14.231C133.342 13.9965 134.076 13.8793 134.842 13.8793C136.327 13.8793 137.492 14.2466 138.336 14.9813C139.195 15.716 139.625 16.732 139.625 18.0293V24.4537C139.625 25.0008 139.469 25.3994 139.156 25.6495C138.844 25.8996 138.351 26.0246 137.679 26.0246V24.9226C138.007 24.5787 138.187 24.3755 138.218 24.313L138.125 24.2192C137.109 25.4228 135.796 26.0246 134.186 26.0246ZM134.537 24.4068C135.506 24.4068 136.265 24.2036 136.812 23.7972C137.374 23.3908 137.656 22.8281 137.656 22.109C137.656 21.39 137.382 20.8195 136.835 20.3974C136.288 19.9754 135.538 19.7644 134.584 19.7644C133.693 19.7644 132.99 19.9754 132.474 20.3974C131.974 20.8039 131.724 21.3744 131.724 22.109C131.724 22.8437 131.966 23.4142 132.451 23.8206C132.951 24.2114 133.646 24.4068 134.537 24.4068ZM146.696 26.0246C145.898 26.0246 145.148 25.9074 144.445 25.6729C143.741 25.4228 143.171 25.0711 142.733 24.6178C142.311 24.1645 142.1 23.6331 142.1 23.0235C142.1 22.2732 142.553 21.8668 143.46 21.8042C143.616 22.6796 143.984 23.3283 144.562 23.7503C145.156 24.1567 145.906 24.3599 146.813 24.3599C147.719 24.3599 148.423 24.227 148.923 23.9613C149.423 23.6956 149.673 23.2892 149.673 22.7421C149.673 22.3513 149.572 22.0387 149.368 21.8042C149.165 21.5541 148.837 21.3431 148.384 21.1712C147.946 20.9836 147.313 20.8039 146.485 20.6319C145.453 20.3974 144.632 20.1473 144.023 19.8816C143.413 19.6159 142.944 19.2642 142.616 18.8265C142.303 18.3889 142.147 17.8105 142.147 17.0915C142.147 16.4819 142.335 15.9348 142.71 15.4502C143.085 14.95 143.601 14.5671 144.257 14.3013C144.929 14.02 145.687 13.8793 146.531 13.8793C147.313 13.8793 148.048 13.9887 148.735 14.2076C149.439 14.4264 150.002 14.739 150.424 15.1454C150.861 15.5518 151.08 16.0208 151.08 16.5522C151.08 16.9117 150.939 17.2009 150.658 17.4197C150.377 17.6229 149.986 17.7402 149.486 17.7714C149.439 17.0837 149.157 16.5444 148.642 16.1536C148.141 15.7472 147.438 15.544 146.531 15.544C145.781 15.544 145.187 15.6847 144.75 15.966C144.312 16.2474 144.093 16.6226 144.093 17.0915C144.093 17.5917 144.296 17.9668 144.703 18.2169C145.125 18.4514 145.836 18.678 146.836 18.8969C148.478 19.2251 149.681 19.6784 150.447 20.2568C151.229 20.8195 151.619 21.6245 151.619 22.6718C151.619 23.7347 151.19 24.5631 150.33 25.1571C149.47 25.7354 148.259 26.0246 146.696 26.0246ZM157.925 26.0246C156.815 26.0246 155.987 25.712 155.44 25.0868C154.893 24.4459 154.619 23.6096 154.619 22.578V15.7316H152.439C152.439 15.2001 152.556 14.7937 152.79 14.5124C153.025 14.231 153.345 14.0903 153.752 14.0903H154.643V11.8629C154.643 11.3471 154.807 10.9719 155.135 10.7375C155.479 10.4874 155.987 10.3623 156.659 10.3623V14.0903H159.777C159.777 15.1845 159.285 15.7316 158.3 15.7316H156.682V22.5076C156.682 23.1329 156.792 23.5784 157.011 23.8441C157.245 24.0942 157.659 24.2192 158.253 24.2192C158.8 24.2192 159.316 24.0786 159.801 23.7972C160.004 24.0004 160.106 24.2739 160.106 24.6178C160.106 24.993 159.91 25.3212 159.519 25.6026C159.129 25.8839 158.597 26.0246 157.925 26.0246ZM165.978 26.0246C164.837 26.0246 163.985 25.712 163.422 25.0868C162.86 24.4459 162.578 23.6096 162.578 22.578V10.6906C162.578 10.1747 162.742 9.79961 163.071 9.56514C163.414 9.31504 163.93 9.18999 164.618 9.18999V22.5076C164.618 23.1172 164.743 23.5549 164.993 23.8206C165.243 24.0864 165.658 24.2192 166.236 24.2192C166.814 24.2192 167.346 24.0786 167.83 23.7972C168.033 24.0317 168.135 24.3052 168.135 24.6178C168.135 24.993 167.94 25.3212 167.549 25.6026C167.158 25.8839 166.634 26.0246 165.978 26.0246ZM174.71 26.0246C173.756 26.0246 172.904 25.8449 172.154 25.4853C171.404 25.1102 170.818 24.6022 170.395 23.9613C169.973 23.3048 169.762 22.5702 169.762 21.7573V18.2873C169.762 17.4588 169.981 16.7085 170.419 16.0364C170.872 15.3643 171.474 14.8406 172.224 14.4655C172.99 14.0747 173.819 13.8793 174.71 13.8793C175.601 13.8793 176.413 14.0669 177.148 14.442C177.898 14.8172 178.485 15.333 178.907 15.9895C179.344 16.646 179.563 17.3885 179.563 18.2169V19.7175C179.563 19.9676 179.469 20.1786 179.282 20.3506C179.094 20.5225 178.867 20.6085 178.602 20.6085H171.755V21.6636C171.755 22.4607 172.005 23.1016 172.506 23.5862C173.021 24.0707 173.756 24.313 174.71 24.313C175.663 24.313 176.39 24.102 176.89 23.68C177.39 23.2579 177.64 22.6874 177.64 21.9684C178.109 21.9371 178.5 22.0309 178.813 22.2497C179.141 22.4529 179.305 22.7577 179.305 23.1641C179.305 23.6643 179.086 24.1333 178.649 24.5709C178.227 25.0086 177.664 25.3603 176.961 25.626C176.257 25.8918 175.507 26.0246 174.71 26.0246ZM177.664 19.0141V18.2169C177.664 17.4354 177.39 16.8023 176.843 16.3177C176.312 15.8176 175.601 15.5675 174.71 15.5675C173.819 15.5675 173.1 15.8176 172.553 16.3177C172.021 16.8023 171.755 17.4354 171.755 18.2169V19.0141H177.664Z" fill="#228C22"/>
<path d="M49.9887 32.8315H48.7141V35.1864H47.8701V29.2779H50.9003L51.8794 29.8434V32.2659L50.9003 32.8315L52.2593 35.1864H51.3223L49.9887 32.8315ZM48.7141 30.0376V32.0718H51.0354V30.0376H48.7141ZM56.6508 34.4521V35.1864H54.2958L53.3167 34.6209V31.4894L54.2958 30.9238H55.6716L56.6508 31.4894V33.3632H54.1354V34.4521H56.6508ZM54.1354 31.6582V32.6289H55.832V31.6582H54.1354ZM58.6486 33.4561V34.4943H60.3452V33.4561H58.6486ZM58.809 35.2286L57.8298 34.6631V33.2873L58.809 32.7217H60.3452V31.7004H58.2519V30.9661H60.1848L61.1639 31.5316V35.2286H60.9445L60.3452 34.8826L59.7459 35.2286H58.809ZM63.4949 35.1864L62.5158 34.6209V29.0247H63.3345V34.4521H64.3474V35.1864H63.4949ZM68.3158 32.5276V34.4268H70.8396V35.1864H67.4718V29.2779H70.8396V30.0376H68.3158V31.7679H70.3332V32.5276H68.3158ZM75.1112 33.2451V34.6209L74.132 35.1864H71.9374V34.4521H74.2924V33.4139H72.9166L71.9374 32.8483V31.5316L72.9166 30.9661H75.0268V31.7004H72.7562V32.6795H74.132L75.1112 33.2451ZM76.1252 31.7004V30.9661H76.9017V30.257L77.7205 29.7843V30.9661H78.7334V31.7004H77.7205V34.4521H78.7334V35.1864H77.8809L76.9017 34.6209V31.7004H76.1252ZM80.5665 33.4561V34.4943H82.2631V33.4561H80.5665ZM80.7269 35.2286L79.7478 34.6631V33.2873L80.7269 32.7217H82.2631V31.7004H80.1698V30.9661H82.1028L83.0819 31.5316V35.2286H82.8624L82.2631 34.8826L81.6638 35.2286H80.7269ZM84.0961 31.7004V30.9661H84.8726V30.257L85.6914 29.7843V30.9661H86.7043V31.7004H85.6914V34.4521H86.7043V35.1864H85.8518L84.8726 34.6209V31.7004H84.0961ZM91.2216 34.4521V35.1864H88.8666L87.8875 34.6209V31.4894L88.8666 30.9238H90.2425L91.2216 31.4894V33.3632H88.7063V34.4521H91.2216ZM88.7063 31.6582V32.6289H90.4029V31.6582H88.7063Z" fill="#228C22"/>
<defs>
<clipPath id="clip0_1_285">
<rect width="29.3948" height="35.1698" fill="white" transform="translate(7.08221 2.4151)"/>
</clipPath>
</defs>
</svg>
